<svg width="145" height="112" viewBox="0 0 145 112" fill="none" xmlns="http://www.w3.org/2000/svg">
<path d="M134 88.75C140.75 82 145 73.5 145 64C145 44 125.75 27.5 100.75 24.75C92.9998 10.25 74.4998 0 52.9998 0C24.2498 0 0.999847 18 0.999847 40C0.999847 49.25 4.99985 57.75 11.9998 64.75C7.99985 72.25 2.49985 78.25 2.49985 78.5C0.999847 80 0.499847 82.5 1.24985 84.75C2.24985 86.75 4.24985 88.25 6.74985 88.25C19.9998 88.25 30.7498 83 37.9998 78.5C40.2498 79 42.7498 79.25 44.9998 79.75C52.9998 94 71.2498 104 92.9998 104C97.9998 104 103 103.5 107.75 102.5C115 107 125.75 112 139.25 112C141.5 112 143.5 110.75 144.5 108.5C145.25 106.5 145 104 143.25 102.25C143.25 102.25 137.75 96.25 134 88.75ZM35.7498 65.5L31.4998 68.25C27.9998 70.75 24.2498 72.5 20.7498 73.75C21.2498 72.5 21.9998 71.25 22.7498 70L26.4998 62.25L20.2498 56C16.9998 52.75 12.9998 47.25 12.9998 40C12.9998 25 31.2498 12 52.9998 12C74.4998 12 92.9998 25 92.9998 40C92.9998 55.25 74.4998 68 52.9998 68C48.7498 68 44.7498 67.75 40.7498 66.75L35.7498 65.5ZM125.5 80L119.25 86.25L123.25 94C123.75 95.25 124.5 96.5 125.25 97.75C121.5 96.5 118 94.5 114.5 92.25L110 89.5L105.25 90.75C101.25 91.75 96.9998 92 92.9998 92C79.4998 92 67.2498 87 59.9998 79.75C85.4998 77 105 60.25 105 40C105 39.25 104.75 38.5 104.75 37.5C120.75 41.25 133 51.75 133 64C133 71.25 128.75 76.75 125.5 80Z" fill="#2A2D43"/>
</svg>
