<svg width="370" height="111" viewBox="0 0 370 111" fill="none" xmlns="http://www.w3.org/2000/svg">
<path d="M0 50C0 22.3858 22.3858 0 50 0H320C347.614 0 370 22.3858 370 50V61C370 88.6142 347.614 111 320 111H50C22.3858 111 0 88.6142 0 61V50Z" fill="#D9D9D9"/>
<path d="M71.0781 55.0001L79.6461 35.4001H86.1421L94.7101 55.0001H87.8781L81.5501 38.5361H84.1261L77.7981 55.0001H71.0781ZM76.1741 51.5841L77.8541 46.8241H86.8701L88.5501 51.5841H76.1741Z" fill="#2A2D43"/>
<path d="M113.047 55.4481C111.461 55.4481 109.986 55.1961 108.623 54.6921C107.279 54.1881 106.113 53.4788 105.123 52.5641C104.134 51.6308 103.359 50.5388 102.799 49.2881C102.258 48.0375 101.987 46.6748 101.987 45.2001C101.987 43.7068 102.258 42.3441 102.799 41.1121C103.359 39.8615 104.134 38.7788 105.123 37.8641C106.113 36.9308 107.279 36.2121 108.623 35.7081C109.986 35.2041 111.461 34.9521 113.047 34.9521C114.653 34.9521 116.127 35.2041 117.471 35.7081C118.815 36.2121 119.982 36.9308 120.971 37.8641C121.961 38.7788 122.726 39.8615 123.267 41.1121C123.827 42.3441 124.107 43.7068 124.107 45.2001C124.107 46.6748 123.827 48.0375 123.267 49.2881C122.726 50.5388 121.961 51.6308 120.971 52.5641C119.982 53.4788 118.815 54.1881 117.471 54.6921C116.127 55.1961 114.653 55.4481 113.047 55.4481ZM113.047 50.1001C113.663 50.1001 114.233 49.9881 114.755 49.7641C115.297 49.5401 115.763 49.2228 116.155 48.8121C116.566 48.3828 116.883 47.8695 117.107 47.2721C117.331 46.6561 117.443 45.9655 117.443 45.2001C117.443 44.4348 117.331 43.7535 117.107 43.1561C116.883 42.5401 116.566 42.0268 116.155 41.6161C115.763 41.1868 115.297 40.8601 114.755 40.6361C114.233 40.4121 113.663 40.3001 113.047 40.3001C112.431 40.3001 111.853 40.4121 111.311 40.6361C110.789 40.8601 110.322 41.1868 109.911 41.6161C109.519 42.0268 109.211 42.5401 108.987 43.1561C108.763 43.7535 108.651 44.4348 108.651 45.2001C108.651 45.9655 108.763 46.6561 108.987 47.2721C109.211 47.8695 109.519 48.3828 109.911 48.8121C110.322 49.2228 110.789 49.5401 111.311 49.7641C111.853 49.9881 112.431 50.1001 113.047 50.1001Z" fill="#2A2D43"/>
<path d="M149.46 55.0001V35.4001H156.068V55.0001H149.46Z" fill="#2A2D43"/>
<path d="M166.529 55.0001V35.4001H171.961L181.929 47.3281H179.409V35.4001H185.849V55.0001H180.417L170.449 43.0721H172.969V55.0001H166.529Z" fill="#2A2D43"/>
<path d="M202.473 43.7441H211.097V48.7281H202.473V43.7441ZM202.921 55.0001H196.313V35.4001H212.245V40.3841H202.921V55.0001Z" fill="#2A2D43"/>
<path d="M221.613 55.0001V35.4001H228.221V55.0001H221.613Z" fill="#2A2D43"/>
<path d="M238.682 55.0001V35.4001H244.114L254.082 47.3281H251.562V35.4001H258.002V55.0001H252.57L242.602 43.0721H245.122V55.0001H238.682Z" fill="#2A2D43"/>
<path d="M268.466 55.0001V35.4001H275.074V55.0001H268.466Z" fill="#2A2D43"/>
<path d="M289.791 55.0001V40.5241H284.051V35.4001H302.139V40.5241H296.399V55.0001H289.791Z" fill="#2A2D43"/>
<path d="M321.138 55.4481C319.551 55.4481 318.076 55.1961 316.714 54.6921C315.37 54.1881 314.203 53.4788 313.214 52.5641C312.224 51.6308 311.45 50.5388 310.89 49.2881C310.348 48.0375 310.078 46.6748 310.078 45.2001C310.078 43.7068 310.348 42.3441 310.89 41.1121C311.45 39.8615 312.224 38.7788 313.214 37.8641C314.203 36.9308 315.37 36.2121 316.714 35.7081C318.076 35.2041 319.551 34.9521 321.138 34.9521C322.743 34.9521 324.218 35.2041 325.562 35.7081C326.906 36.2121 328.072 36.9308 329.062 37.8641C330.051 38.7788 330.816 39.8615 331.358 41.1121C331.918 42.3441 332.198 43.7068 332.198 45.2001C332.198 46.6748 331.918 48.0375 331.358 49.2881C330.816 50.5388 330.051 51.6308 329.062 52.5641C328.072 53.4788 326.906 54.1881 325.562 54.6921C324.218 55.1961 322.743 55.4481 321.138 55.4481ZM321.138 50.1001C321.754 50.1001 322.323 49.9881 322.846 49.7641C323.387 49.5401 323.854 49.2228 324.246 48.8121C324.656 48.3828 324.974 47.8695 325.198 47.2721C325.422 46.6561 325.534 45.9655 325.534 45.2001C325.534 44.4348 325.422 43.7535 325.198 43.1561C324.974 42.5401 324.656 42.0268 324.246 41.6161C323.854 41.1868 323.387 40.8601 322.846 40.6361C322.323 40.4121 321.754 40.3001 321.138 40.3001C320.522 40.3001 319.943 40.4121 319.402 40.6361C318.879 40.8601 318.412 41.1868 318.002 41.6161C317.61 42.0268 317.302 42.5401 317.078 43.1561C316.854 43.7535 316.742 44.4348 316.742 45.2001C316.742 45.9655 316.854 46.6561 317.078 47.2721C317.302 47.8695 317.61 48.3828 318.002 48.8121C318.412 49.2228 318.879 49.5401 319.402 49.7641C319.943 49.9881 320.522 50.1001 321.138 50.1001Z" fill="#2A2D43"/>
<path d="M191.615 73.6801H200.351V78.4401H191.615V73.6801ZM192.063 81.0161H201.863V86.0001H185.567V66.4001H201.499V71.3841H192.063V81.0161Z" fill="#2A2D43"/>
<path d="M225.233 86.0001L233.801 66.4001H240.297L248.865 86.0001H242.033L235.705 69.5361H238.281L231.953 86.0001H225.233ZM230.329 82.5841L232.009 77.8241H241.025L242.705 82.5841H230.329Z" fill="#2A2D43"/>
<path d="M257.2 86.0001V66.4001H263.808V80.8761H272.656V86.0001H257.2Z" fill="#2A2D43"/>
<path d="M287.809 73.6801H296.545V78.4401H287.809V73.6801ZM288.257 81.0161H298.057V86.0001H281.761V66.4001H297.693V71.3841H288.257V81.0161ZM286.801 64.8041L290.497 60.3241H296.517L291.001 64.8041H286.801Z" fill="#2A2D43"/>
<path d="M307.881 86.0001V66.4001H313.313L321.153 79.1961H318.297L325.913 66.4001H331.345L331.401 86.0001H325.381L325.325 75.4721H326.277L321.069 84.2361H318.157L312.725 75.4721H313.901V86.0001H307.881Z" fill="#2A2D43"/>
<path d="M50 41C50.6209 53.6667 59.0902 79 88 79" stroke="#2A2D43" stroke-width="10" stroke-linecap="round"/>
<path d="M88 79H165" stroke="#2A2D43" stroke-width="10" stroke-linecap="round"/>
<circle cx="49.5" cy="27.5" r="5.5" fill="#2A2D43"/>
</svg>
