<svg width="124" height="124" viewBox="0 0 124 124" fill="none" xmlns="http://www.w3.org/2000/svg">
<path d="M62 24C48.75 24 38 34.75 38 48C38 61.25 48.75 72 62 72C75.25 72 86 61.25 86 48C86 34.75 75.25 24 62 24ZM62 60C55.25 60 50 54.75 50 48C50 41.5 55.25 36 62 36C68.5 36 74 41.5 74 48C74 54.75 68.5 60 62 60ZM62 0C27.75 0 0 27.75 0 62C0 96.25 27.75 124 62 124C96.25 124 124 96.25 124 62C124 27.75 96.25 0 62 0ZM62 112C49.5 112 38 107.5 29.25 100C33 94.25 39.5 90.25 46.75 90.25C52 91.75 57 92.5 62 92.5C66.75 92.5 71.75 91.75 77 90.25C84.25 90.5 90.75 94.25 94.5 100C85.75 107.5 74.25 112 62 112ZM102.5 91C96.5 83.25 87 78 76.25 78C73.75 78 69.75 80.5 62 80.5C54 80.5 50 78 47.5 78C36.75 78 27.25 83.25 21.25 91C15.25 83 12 73 12 62C12 34.5 34.25 12 62 12C89.5 12 112 34.5 112 62C112 73 108.5 83 102.5 91Z" fill="#2A2D43"/>
</svg>
